PathFileType	4	(X/Y/Z)	Patient4_TMGait_0pt4_03_left_38.trc.trc
DataRate	CameraRate	NumFrames	NumMarkers	Units	OrigDataRate	OrigDataStartFrame	OrigNumFrames
74.468085106383	74.468085106383	4	33	mm	74.468085106383	1	       141
Frame#	Time	Sacral			L.Shoulder			Chest			R.Shoulder			Neck			R.ASIS			L.ASIS			R.Thigh.Superior			R.Thigh.Lateral			R.Thigh.Inferior			R.Patella			L.Thigh.Superior			L.Thigh.Lateral			L.Thigh.Inferior			L.Patella			L.Shank.Superior			L.Shank.Lateral			L.Shank.Inferior			R.Shank.Superior			R.Shank.Lateral			R.Shank.Inferior			R.Heel			R.Midfoot.Superior			R.Midfoot.Lateral			R.Toe			L.Heel			L.Midfoot.Lateral			L.Midfoot.Superior			L.Toe			L.Elbow			L.Wrist			R.Elbow			R.Wrist			
		X1	Y1	Z1	X2	Y2	Z2	X3	Y3	Z3	X4	Y4	Z4	X5	Y5	Z5	X6	Y6	Z6	X7	Y7	Z7	X8	Y8	Z8	X9	Y9	Z9	X10	Y10	Z10	X11	Y11	Z11	X12	Y12	Z12	X13	Y13	Z13	X14	Y14	Z14	X15	Y15	Z15	X16	Y16	Z16	X17	Y17	Z17	X18	Y18	Z18	X19	Y19	Z19	X20	Y20	Z20	X21	Y21	Z21	X22	Y22	Z22	X23	Y23	Z23	X24	Y24	Z24	X25	Y25	Z25	X26	Y26	Z26	X27	Y27	Z27	X28	Y28	Z28	X29	Y29	Z29	X30	Y30	Z30	X31	Y31	Z31	X32	Y32	Z32	X33	Y33	Z33	

1	50.370000000000	891.650809568888	1001.797005508771	531.261674218627	1032.521795389348	1436.456545588141	337.564544368927	1150.477108748786	1375.743445774699	491.433251078820	1076.407937267154	1441.820892974332	672.341388399243	1021.387487506377	1498.790090546726	495.716219246541	1129.768408878538	947.273576714371	632.487008527766	1095.748041490114	968.123010323066	360.197246721755	1161.850674831889	741.938953242546	602.433976981081	1077.452115545007	633.828228032797	665.161138048176	1150.314105293164	579.549026040370	584.231839985702	1145.739367375306	492.148696206926	589.767718961280	1179.504740818172	780.104110362129	372.697486062013	1124.188039827998	655.673283068213	293.705321714086	1232.941169727634	591.760254163691	337.971901584181	1243.936087099077	503.822610906248	327.002735728942	1178.317153142709	435.921822628864	322.892245121934	1034.854123712896	390.667977343407	281.942191688022	1030.297525721513	258.444343040587	332.603266530935	1116.034716710137	403.711846890787	595.613343518186	1042.779413679720	301.584833157387	658.527442217286	1080.489311387218	206.260570742176	591.202804355418	941.826618505007	43.814818160051	562.577838674945	1114.134961506072	96.542677697511	594.392249386347	1027.272060080218	37.272034564457	634.940113472442	1235.498505651110	42.529296497727	618.004109721663	844.298836538382	187.021686514233	380.419742405257	897.471728778257	143.745285338655	295.656995224907	1004.475261551186	155.344811993402	310.838543626575	1083.614384660838	45.646462014013	274.671511566940	1020.084650487134	1078.397140130574	234.186912248445	1113.889253264650	834.677166259173	213.423119582397	1087.125704165320	1096.597405065263	806.121708982969	1236.338338100554	881.287360405130	804.217502054930	
2	50.383428571429	890.510623776090	1002.521585287582	532.965926600307	1031.246539488071	1436.808418739399	339.004534658756	1150.298981826283	1375.641774687247	491.834391169272	1078.026700073331	1441.951042585726	673.362713050853	1021.703986711119	1499.032676927281	497.249986035795	1128.809115014853	946.947727268051	632.811955805527	1093.417918504334	968.740262633666	360.694033767041	1158.856797371328	741.353454657072	602.169858328223	1073.977300660972	633.803167814385	665.374991801067	1145.832911009846	579.046913555500	584.103732871846	1140.725942578382	491.959037140284	589.655804613232	1178.389612912114	782.607322502157	373.065726534588	1124.399530636944	657.522500061773	293.888974701882	1234.035397743623	595.094989018012	338.057376537346	1246.701405309029	508.196308640494	327.178363795014	1184.298588845342	438.779325870203	322.622573931322	1043.827655987434	386.446141942824	281.804511248519	1046.880601905972	254.217809277107	331.147512827698	1110.804925371334	403.561122399801	595.584285515382	1037.568872191196	301.478860386570	658.537611390169	1075.012482029053	206.203778286988	591.267080235331	936.207055181939	43.760693729773	562.655591360600	1108.424603392700	96.508104766143	594.436517854958	1021.543877354115	37.254299657744	635.066444429911	1229.720887944035	42.527351414725	617.996652468774	866.541151343533	171.933680637509	379.052474063376	921.031003071949	133.348634111304	293.380649176233	1026.730247529702	150.871561171787	308.281326043479	1111.376509078700	47.249596379596	269.936244245726	1010.940636343581	1079.137049927759	236.510136837063	1092.674886519177	832.380509263074	217.033198897962	1098.514595927866	1097.876497912860	807.710608902305	1258.012226852147	891.530102394486	803.841144175166	
3	50.396857142857	889.362036520804	1003.230612305225	534.614416914242	1029.996371519725	1437.136803447763	340.410927660657	1150.139846818664	1375.505473432334	492.196262622716	1079.662691246100	1442.044122423145	674.344402792195	1022.048203189760	1499.245148960167	498.759295496725	1127.843168465572	946.610146960176	633.097872757411	1091.113752783671	969.311883121835	361.151406839088	1155.862209047477	740.764084170064	601.881936761865	1070.516781054381	633.772791509088	665.589573048592	1141.358639840615	578.542995489059	583.968750359024	1135.720859292498	491.763001314539	589.543317079368	1177.186066750501	784.937503310961	373.432120959004	1124.466623914179	659.238668314799	294.086470326435	1234.852964488033	598.181789392283	338.300666981080	1249.172224546274	512.396437600599	327.460919925784	1190.041179233151	441.548130515896	322.402028250153	1052.786155960750	382.070268637332	281.607693144668	1063.559297963239	249.978744331572	329.637692770188	1105.597040530587	403.408434726982	595.556983670035	1032.382414162099	301.369713690960	658.559326345102	1069.556033981781	206.140765336008	591.326151276143	930.605743911457	43.706545284754	562.730363479505	1102.740841790919	96.472460706003	594.479041618218	1015.846241924107	37.234134959295	635.187837596854	1223.976609532393	42.524011831737	617.992564843819	889.163705684337	156.793163097890	377.520155974173	944.944968074750	122.968801974195	290.978886575990	1049.202080313176	146.467361226550	305.667717799873	1139.327921596694	49.086160073213	265.212038921004	1001.764667475233	1079.919158519277	238.766992285253	1071.727798752402	830.261259267652	220.663740862603	1109.774221674989	1099.160473543961	809.230770927607	1279.442344753114	901.891950274510	803.334856684883	
4	50.410285714286	888.206744366408	1003.906659043701	536.150084046967	1028.800869265499	1437.423233887748	341.735483793842	1150.015294051590	1375.307766843623	492.472482403452	1081.319246242936	1442.069199665065	675.235377586936	1022.440452369665	1499.401790616666	500.203921747678	1126.875786891422	946.254616340228	633.301090256710	1088.863605379438	969.796365831302	361.525315706387	1152.881290397927	740.166741191966	601.554018559354	1067.087589403546	633.734601188000	665.799140768701	1136.902490876932	578.039350075307	583.818385461636	1130.735477947172	491.559097671798	589.425719777015	1175.807035901208	786.931053639342	373.793945499012	1124.257535095927	660.705180559717	294.287833318391	1235.159127414432	600.804410039084	338.796820970360	1251.084139587294	516.260889171779	327.925189910109	1195.311490814480	444.153339289148	322.269152676028	1061.673474631995	377.484382445682	281.305787109615	1080.292985677848	245.805973635757	328.062160734270	1100.432362508533	403.254977589191	595.529754683368	1027.243521601989	301.258633688445	658.599525356670	1064.144348712579	206.069351265109	591.376147267639	925.048727206237	43.652945525483	562.799888737756	1097.117247892979	96.436009343023	594.517445075747	1010.213863606145	37.210073098123	635.298896876647	1218.304096590161	42.519892035891	617.995099424259	912.312330820889	141.768770763431	375.728469313979	969.350912433548	112.759025021707	288.418277458135	1071.918986981588	142.271588406607	303.013630030896	1167.428741940802	51.361714105386	260.642398512108	992.582931656753	1080.785585969618	240.902737768842	1051.362760933366	828.489542323798	224.320883191740	1120.749645536295	1100.450529115298	810.586917092918	1300.304627979606	912.461354899734	802.566531744782	
